# Blender v2.82 (sub 7) OBJ File: 'Filament_Particles.blend'
# www.blender.org
mtllib CellA.mtl
o CellA_Cylinder.001
v -3.551158 -0.385049 -0.086555
v -3.165229 -0.487800 0.656733
v -2.942406 -0.421359 1.996817
v -2.613000 -0.424400 2.567983
v -2.168118 -0.487767 0.371498
v -2.215594 -0.421263 3.078999
v -2.202478 0.471732 3.082816
v -2.124070 -0.584941 2.374456
v -1.610648 -0.470800 3.563513
v -0.874426 -0.444703 3.937055
v -1.035334 -0.422976 2.424292
v -1.065813 -0.282074 0.813882
v -0.443512 -0.084864 1.289573
v -0.196012 0.115976 4.387156
v 0.804666 -0.526295 3.104212
v 0.415490 -0.104695 0.380436
v -3.237581 0.348142 1.006323
v -3.196187 0.402532 0.497120
v -2.834293 0.498457 2.222142
v -3.124918 0.475852 1.562088
v -1.433363 0.545001 3.368365
v -0.764191 0.462346 4.073104
v -1.296325 0.468966 2.627071
v -1.121094 0.329479 -0.241400
v -0.422077 0.352865 3.376822
v 0.507675 0.398169 3.236979
v -0.610511 0.487423 1.472269
v -0.207811 0.350074 0.362958
v -3.568067 -0.742090 -1.440931
v -3.269893 -0.729050 -2.395805
v -3.594620 -0.334908 -1.735802
v -3.179527 -0.303141 -2.469505
v -2.009723 -0.883303 -1.787509
v -2.221878 -0.819734 -2.744520
v -2.820507 -0.547885 -2.848672
v -0.463862 -0.477841 -0.739933
v -2.204025 -0.619306 -3.348038
v -1.748238 0.362776 -3.575719
v -1.504442 -0.570662 -3.803741
v -0.717774 -0.775895 -2.226396
v -1.129609 0.410049 -3.931735
v -0.604854 -0.491596 -4.082351
v 0.769388 -0.481965 -2.607827
v -3.459973 0.059984 0.022620
v -3.154666 0.180699 -0.826404
v -3.378465 -0.045746 -1.827683
v -2.661735 0.121093 -2.080098
v -2.456547 0.049521 -2.944957
v -1.493726 0.093819 -1.958064
v -2.049125 0.261308 -3.123822
v 0.660796 0.460243 -3.977366
v -0.013499 0.425888 -4.098333
v 0.373514 -0.631258 4.133144
v 0.703480 0.293950 4.246114
v 1.218935 -0.163809 1.613653
v 1.209676 -0.198183 0.464232
v 0.979037 -0.040830 -0.150543
v 1.315752 -0.306291 4.212440
v 1.374728 0.258729 4.338349
v 2.629241 -0.479106 2.492477
v 1.711049 -0.414763 2.138425
v 1.755449 0.035773 3.911664
v 2.129961 -0.480418 3.207196
v 2.111807 -0.676620 0.557876
v 2.519341 -0.461298 -0.948890
v 2.761242 -0.128681 2.411167
v 2.532609 -0.757409 0.894036
v 3.375471 -0.549538 1.495372
v 3.634936 -0.502389 0.790487
v 3.458759 -0.057718 1.434073
v -0.177430 0.429862 4.410652
v -0.130943 0.051610 2.516308
v 1.166377 0.499103 1.766240
v 0.235537 0.166077 1.699452
v 0.191943 0.410706 -0.017460
v 1.437804 0.477838 2.412170
v 1.312134 0.257219 0.517487
v 0.490071 0.137096 0.971993
v 1.459382 0.262914 3.325305
v 2.059276 0.318018 3.495549
v 2.412867 0.471595 2.854783
v 1.875121 0.293657 0.426283
v 2.732916 0.478385 -0.571145
v 3.111152 0.479592 1.802807
v 3.454716 0.470467 0.861567
v 3.399050 0.466465 0.036287
v 0.750656 -0.026213 -0.664046
v 0.082029 -0.470719 -4.103869
v 1.100961 -0.417625 -3.853719
v 1.616899 -0.225508 -1.420537
v 2.397423 -0.428844 -2.866871
v 1.829525 -0.452863 -3.432059
v 3.409271 -0.440923 -0.284361
v 3.104365 -0.466321 -1.659703
v 2.835064 -0.445271 -2.259292
v 3.010955 0.465441 -1.716220
v 3.332999 -0.429129 -0.880574
v 0.063174 0.319308 -2.054922
v 0.239851 0.427139 -3.053436
v 1.026931 0.736787 -0.826932
v 0.883124 0.594114 -2.499950
v 1.314103 0.707204 -2.373857
v 1.248139 0.481460 -3.804333
v 1.900083 0.587926 -3.415224
v 2.158106 0.720390 -1.850253
v 1.914875 0.668915 -2.798599
v 3.233805 0.422871 -0.900087
v 2.536993 0.543036 -2.665733
vt 0.392798 0.328171
vt 0.476526 0.233700
vt 0.465146 0.328592
vt 0.406224 0.187033
vt 0.449051 0.146240
vt 0.456645 0.192935
vt 0.417988 0.101534
vt 0.295666 0.232322
vt 0.357204 0.167161
vt 0.327840 0.276634
vt 0.575749 0.924929
vt 0.616303 0.869313
vt 0.627974 0.944548
vt 0.296143 0.023779
vt 0.376031 0.061776
vt 0.247223 0.084834
vt 0.622674 0.540503
vt 0.568993 0.606556
vt 0.591342 0.549518
vt 0.555629 0.684224
vt 0.605909 0.714821
vt 0.555197 0.757706
vt 0.807803 0.515817
vt 0.703466 0.477915
vt 0.850644 0.489166
vt 0.807076 0.304705
vt 0.615689 0.540503
vt 0.623726 0.486538
vt 0.681911 0.526320
vt 0.737486 0.540503
vt 0.552684 0.879670
vt 0.553798 0.926382
vt 0.641434 0.425181
vt 0.575790 0.441297
vt 0.450816 0.478111
vt 0.476526 0.386485
vt 0.627974 0.666167
vt 0.659975 0.619064
vt 0.657063 0.675999
vt 0.339560 0.470670
vt 0.637936 0.711702
vt 0.335085 0.539547
vt 0.412166 0.536737
vt 0.373374 0.558559
vt 0.679521 0.737131
vt 0.697861 0.804954
vt 0.630534 0.766962
vt 0.322254 0.580079
vt 0.266534 0.597077
vt 0.244560 0.474867
vt 0.637848 0.884127
vt 0.632067 0.824758
vt 0.699918 0.853785
vt 0.220331 0.276765
vt 0.256934 0.369604
vt 0.137783 0.471434
vt 0.931336 0.413501
vt 0.947236 0.352038
vt 1.000000 0.303038
vt 0.896969 0.430311
vt 0.679831 0.635604
vt 0.896708 0.220180
vt 0.968600 0.259715
vt 0.722681 0.265236
vt 0.730671 0.303275
vt 0.810813 0.152310
vt 0.840034 0.087322
vt 0.953479 0.091079
vt 0.974991 0.136434
vt 0.641190 0.919965
vt 0.702956 0.918376
vt 0.168711 0.255367
vt 0.190628 0.177555
vt 0.094561 0.608500
vt 0.094561 0.677299
vt 0.056500 0.598179
vt 0.234901 0.000000
vt 0.113121 0.090156
vt 0.167726 0.132243
vt 0.160544 0.051732
vt 0.738929 0.585297
vt 0.764393 0.545915
vt 0.772921 0.636996
vt 0.109708 0.230954
vt 0.745928 0.706655
vt 0.772921 0.784263
vt 0.738406 0.789643
vt 0.769858 0.832048
vt 0.652556 0.363144
vt 0.637359 0.251607
vt 0.666754 0.310827
vt 0.524746 0.492031
vt 0.517795 0.408495
vt 0.482580 0.470601
vt 0.476526 0.394391
vt 0.724383 0.540503
vt 0.717320 0.616208
vt 0.554890 0.356317
vt 0.481371 0.343057
vt 0.608579 0.223830
vt 0.596014 0.329697
vt 0.705873 0.665083
vt 0.702956 0.752067
vt 0.703876 0.815995
vt 0.514102 0.540503
vt 0.547034 0.573645
vt 0.478624 0.576261
vt 0.480692 0.628884
vt 0.544695 0.647492
vt 0.154523 0.586080
vt 0.200917 0.598179
vt 0.104516 0.374636
vt 0.172259 0.301543
vt 0.177510 0.340751
vt 0.023751 0.456814
vt 0.050687 0.506197
vt 0.091245 0.549090
vt 0.053113 0.324819
vt 0.548913 0.895111
vt 0.476526 0.892514
vt 0.547345 0.840918
vt 0.483883 0.749896
vt 0.548913 0.742451
vt 0.548170 0.788554
vt 0.006556 0.262364
vt 0.000000 0.304154
vt 0.706326 0.184822
vt 0.483623 0.969465
vt 0.547335 0.996325
vt 0.484605 1.000000
vt 0.545612 0.946045
vt 0.483216 0.938702
vt 0.681854 0.080356
vt 0.598531 0.131680
vt 0.536244 0.140308
vt 0.582843 0.092645
vt 0.627883 0.054208
vt 0.692581 0.018046
vt 0.479503 0.824570
vt 0.485502 0.692061
vt 0.545075 0.686758
vt 0.627974 0.595710
vt 0.619461 0.813166
vt 0.617483 0.758605
vt 0.548913 0.811385
vt 0.879269 0.461508
vt 0.620327 0.669838
vt 0.558823 0.638167
vt 0.709737 0.383588
vt 0.568667 0.536665
vt 0.670954 0.540503
vt 0.702956 0.541519
vt 0.094561 0.661570
vt 0.122316 0.598179
vt 0.122316 0.677517
vt 0.634455 0.604409
vt 0.991124 0.201425
vt 0.974526 0.174690
vt 0.852367 0.016943
vt 0.895933 0.036863
vt 0.051913 0.666364
vt 0.003748 0.641284
vt 0.051913 0.598179
vt 0.051913 0.638742
vt 0.088041 0.199889
vt 0.771012 0.697342
vt 0.043569 0.142739
vt 0.012437 0.185261
vt 0.000000 0.663145
vt 0.482870 0.254198
vt 0.733416 0.035115
vt 0.811752 0.003519
vt 0.780966 0.093648
vt 0.751074 0.083699
vt 0.500387 0.185925
vt 0.000019 0.361282
vt 0.006330 0.407118
vt 0.758768 0.000000
vn 0.0773 -0.9920 0.0994
vn -0.1545 -0.9878 0.0187
vn 0.0096 -0.9948 0.1012
vn -0.0602 -0.9968 0.0522
vn -0.2331 -0.9535 0.1912
vn -0.2487 -0.9547 0.1637
vn -0.0087 -0.9990 0.0432
vn 0.1429 -0.9877 -0.0635
vn 0.0938 -0.9913 -0.0925
vn 0.2025 -0.9777 0.0556
vn -0.1750 -0.1859 0.9669
vn -0.4982 -0.0653 0.8646
vn -0.0243 -0.2597 0.9654
vn 0.0615 -0.9952 -0.0757
vn -0.0327 -0.9990 0.0320
vn 0.0240 -0.9974 -0.0679
vn -0.9866 0.0771 0.1438
vn -0.9485 0.2878 0.1319
vn -0.8885 0.4586 0.0120
vn -0.8684 0.0097 0.4958
vn -0.8246 0.0048 0.5657
vn -0.6474 0.0871 0.7571
vn 0.0276 0.9991 -0.0321
vn 0.1190 0.9923 -0.0334
vn 0.0245 0.9982 -0.0544
vn -0.0228 0.9949 -0.0980
vn 0.0866 0.9943 -0.0623
vn 0.0709 0.9784 -0.1941
vn 0.0960 0.9918 -0.0840
vn -0.0079 0.9997 -0.0217
vn -0.6158 -0.0384 0.7869
vn -0.4998 -0.0352 0.8654
vn 0.0320 0.9983 -0.0481
vn -0.0312 0.9989 -0.0350
vn -0.6076 -0.7661 0.2096
vn -0.8424 0.0079 -0.5388
vn -0.9560 0.1850 -0.2279
vn -0.7388 0.3397 -0.5821
vn 0.0243 -0.9981 0.0574
vn -0.0765 -0.9951 0.0622
vn -0.6529 0.1899 -0.7332
vn -0.1091 -0.9716 -0.2100
vn -0.2565 -0.7824 -0.5675
vn -0.2880 -0.8223 -0.4909
vn -0.6837 0.3580 -0.6359
vn -0.5604 0.1065 -0.8213
vn -0.5945 0.0907 -0.7989
vn -0.2048 -0.9271 -0.3139
vn 0.0317 -0.9828 -0.1820
vn 0.1446 -0.9895 0.0090
vn -0.1274 0.0908 -0.9877
vn -0.4513 0.0395 -0.8915
vn -0.3108 0.0432 -0.9495
vn 0.0693 -0.9973 0.0233
vn 0.2112 -0.9631 0.1670
vn 0.1045 -0.9928 0.0585
vn -0.3012 0.9468 -0.1130
vn -0.6172 0.7466 -0.2483
vn -0.0033 0.9942 -0.1075
vn -0.0555 0.9981 0.0259
vn -0.1516 0.9862 -0.0669
vn -0.0780 0.9872 0.1391
vn 0.0739 0.9957 0.0563
vn -0.2313 0.9728 0.0098
vn -0.1219 0.9922 0.0251
vn -0.0414 0.9984 0.0389
vn -0.0665 0.9880 0.1396
vn 0.0643 0.0287 -0.9975
vn 0.0066 0.0069 -1.0000
vn -0.3170 -0.9476 -0.0399
vn -0.2258 -0.9693 -0.0977
vn -0.0008 -0.1107 0.9939
vn -0.0756 -0.1425 0.9869
vn 0.1686 -0.9788 0.1166
vn -0.0198 -0.9968 0.0770
vn -0.1824 -0.9809 -0.0679
vn 0.0288 -0.9969 0.0738
vn 0.7590 -0.1276 0.6385
vn 0.6804 -0.2786 0.6778
vn 0.7992 -0.1708 0.5763
vn -0.2841 -0.9556 -0.0776
vn 0.8180 -0.0412 0.5738
vn 0.8727 -0.0984 0.4783
vn 0.9150 0.1045 0.3898
vn 0.9948 0.0915 0.0452
vn -0.0163 0.9996 0.0232
vn -0.0586 0.9965 0.0589
vn 0.0089 0.9986 0.0529
vn 0.1234 0.9909 0.0533
vn -0.0129 0.9910 0.1332
vn 0.0111 0.9999 0.0051
vn -0.1046 0.9865 0.1260
vn 0.7022 -0.1376 0.6985
vn 0.8286 -0.0534 0.5573
vn -0.0031 0.9979 0.0645
vn -0.0361 0.9950 0.0936
vn -0.0564 0.9983 0.0169
vn -0.0940 0.9912 -0.0928
vn 0.8491 0.1111 0.5165
vn 0.8422 0.1762 0.5095
vn 0.9694 0.2273 0.0929
vn 0.9822 0.1096 -0.1526
vn 0.9813 0.0880 -0.1711
vn 0.0394 -0.9989 -0.0256
vn 0.0710 -0.9915 -0.1089
vn -0.1355 -0.9859 0.0984
vn -0.1601 -0.9828 -0.0922
vn 0.1030 -0.9894 0.1027
vn -0.0225 -0.9984 0.0528
vn 0.0134 -0.9997 -0.0180
vn 0.0256 -0.9987 -0.0447
vn -0.1064 -0.9928 -0.0558
vn 0.6071 -0.0325 -0.7939
vn 0.6418 -0.0110 -0.7668
vn 0.7679 -0.0026 -0.6406
vn 0.9323 0.0811 -0.3524
vn 0.9382 0.0807 -0.3365
vn 0.8755 0.0528 -0.4804
vn 0.0685 -0.9958 -0.0611
vn 0.0395 -0.9992 -0.0001
vn -0.0635 0.9884 0.1382
vn 0.2355 0.0043 -0.9719
vn 0.3673 -0.0201 -0.9299
vn 0.4163 -0.0128 -0.9091
vn 0.1522 0.9882 0.0175
vn 0.0359 0.9959 0.0832
vn -0.0569 0.9983 0.0130
vn 0.1029 0.9946 -0.0112
vn 0.2578 0.9662 0.0091
vn 0.2450 0.9642 -0.1018
vn 0.8226 0.0414 -0.5672
vn 0.9723 0.0900 -0.2158
vn 0.9731 0.1086 -0.2033
vn -0.9215 -0.2151 0.3235
vn -0.4789 0.1789 0.8595
vn -0.7112 0.0074 0.7030
vn -0.4930 0.1719 0.8529
vn -0.7705 0.6369 -0.0280
vn -0.9274 -0.0537 0.3701
vn -0.9555 -0.0539 0.2899
vn -0.7643 0.6449 0.0067
vn 0.1402 0.9892 0.0422
vn 0.0927 0.9953 0.0272
vn -0.9888 -0.1243 -0.0826
vn -0.1010 -0.9939 -0.0451
vn -0.4783 0.8596 -0.1797
vn -0.0451 0.9856 0.1631
vn -0.5086 0.8468 -0.1558
vn -0.5060 0.8501 -0.1460
vn -0.0354 0.9993 0.0108
vn -0.0307 0.9933 -0.1111
vn -0.0074 -0.2168 0.9762
vn 0.0012 -1.0000 0.0090
vn 0.7991 -0.1670 0.5775
vn 0.1726 -0.9802 0.0969
vn 0.1990 -0.9775 -0.0697
vn 0.1705 -0.0836 0.9818
vn -0.0511 0.9975 -0.0478
vn 0.0708 0.9903 -0.1196
vn -0.0943 0.9917 -0.0877
vn -0.2213 0.9725 -0.0730
vn -0.1009 0.9913 -0.0850
vn 0.0112 0.9999 -0.0056
vn -0.0106 -0.9999 -0.0017
vn -0.0194 -0.9997 -0.0169
vn -0.0091 0.9915 -0.1300
g CellA_Cylinder.001_None
usemtl None
s 1
f 5/1/1 3/2/2 2/3/3
f 8/4/4 6/5/5 4/6/6
f 9/7/7 6/5/5 8/4/4
f 13/8/8 11/9/9 12/10/10
f 12/10/10 11/9/9 5/1/1
f 14/11/11 10/12/12 53/13/13
f 53/14/14 10/15/15 15/16/16
f 15/16/16 10/15/15 9/7/7
f 1/17/17 17/18/18 44/19/19
f 19/20/20 4/21/21 7/22/22
f 19/23/23 23/24/24 20/25/25
f 23/24/24 24/26/26 20/25/25
f 22/27/27 25/28/28 23/24/24
f 21/29/29 23/24/24 7/30/30
f 10/12/12 14/11/11 22/31/31
f 22/31/31 14/11/11 71/32/32
f 23/24/24 25/28/28 72/33/33
f 26/34/34 72/33/33 25/28/28
f 29/35/35 2/3/35 1/36/35
f 30/37/36 31/38/37 32/39/38
f 33/40/39 2/3/3 29/35/40
f 35/41/41 30/37/36 32/39/38
f 34/42/42 30/43/43 35/44/44
f 35/41/41 32/39/38 48/45/45
f 38/46/46 37/47/47 35/41/41
f 34/42/42 37/48/48 39/49/49
f 33/40/39 34/42/42 40/50/50
f 42/51/51 39/52/52 41/53/53
f 16/54/54 12/10/10 36/55/55
f 36/55/55 40/50/50 43/56/56
f 44/57/19 45/58/57 46/59/58
f 18/60/59 24/26/26 45/58/57
f 32/39/38 46/61/58 48/45/45
f 45/58/57 49/62/60 47/63/61
f 49/62/60 24/26/26 75/64/62
f 24/26/26 28/65/63 75/64/62
f 49/62/60 75/64/62 98/66/64
f 99/67/65 41/68/66 38/69/67
f 88/70/68 41/53/53 52/71/69
f 56/72/70 55/73/71 16/54/54
f 54/74/72 53/75/13 59/76/73
f 58/77/74 53/14/14 15/16/16
f 60/78/75 15/16/16 61/79/76
f 58/77/74 15/16/16 63/80/77
f 62/81/78 58/82/79 63/83/80
f 64/84/81 55/73/71 56/72/70
f 66/85/82 68/86/83 70/87/84
f 70/87/84 68/86/83 69/88/85
f 74/89/86 77/90/87 78/91/88
f 28/65/63 74/89/86 78/91/88
f 28/65/63 78/91/88 75/64/62
f 78/91/88 77/90/87 75/64/62
f 26/34/34 54/92/89 79/93/90
f 54/92/89 59/94/91 79/93/90
f 79/93/90 59/94/91 80/95/92
f 59/96/93 62/81/78 80/97/94
f 79/93/90 80/95/92 76/98/95
f 80/95/92 81/99/96 76/98/95
f 76/98/95 82/100/97 73/101/98
f 73/101/98 82/100/97 77/90/87
f 80/97/94 66/85/82 81/102/99
f 81/102/99 66/85/82 84/103/100
f 84/103/100 70/87/84 85/104/101
f 70/105/84 69/106/85 85/107/101
f 86/108/102 69/106/85 93/109/103
f 88/110/104 43/56/56 42/111/105
f 90/112/106 57/113/107 87/114/108
f 43/56/56 91/115/109 90/112/106
f 92/116/110 43/56/56 89/117/111
f 64/84/81 57/113/107 65/118/112
f 92/116/110 91/115/109 43/56/56
f 92/119/113 104/120/114 91/121/115
f 65/118/112 90/112/106 91/115/109
f 96/122/116 94/123/117 95/124/118
f 93/125/119 65/118/112 97/126/120
f 98/66/64 75/64/62 100/127/121
f 51/128/122 88/129/68 52/130/69
f 89/131/123 51/128/122 103/132/124
f 103/132/124 92/119/113 89/131/123
f 92/119/113 103/132/124 104/120/114
f 100/127/121 77/90/87 105/133/125
f 82/100/97 83/134/126 77/90/87
f 105/133/125 77/90/87 83/134/126
f 86/135/127 107/136/128 83/134/126
f 83/134/126 96/137/129 105/133/125
f 105/133/125 96/137/129 108/138/130
f 108/139/131 96/122/116 95/124/118
f 108/139/131 95/124/118 91/121/115
f 107/140/132 93/109/103 97/141/133
f 2/142/134 17/18/18 1/17/17
f 9/143/135 7/22/22 6/144/136
f 4/6/6 3/2/2 8/4/4
f 11/9/9 9/7/7 8/4/4
f 8/4/4 3/2/2 5/1/1
f 5/1/1 11/9/9 8/4/4
f 21/145/137 9/143/135 10/12/12
f 12/10/10 5/1/1 36/55/55
f 15/16/16 9/7/7 11/9/9
f 55/73/71 11/9/9 13/8/8
f 12/10/10 16/54/54 13/8/8
f 17/146/18 18/60/138 44/57/19
f 3/147/139 19/20/20 20/148/140
f 19/20/20 3/147/139 4/21/21
f 17/18/18 3/147/139 20/148/140
f 3/147/139 17/18/18 2/142/134
f 17/146/18 20/25/141 18/60/138
f 24/26/26 18/60/59 20/25/25
f 21/145/137 7/22/22 9/143/135
f 4/21/21 6/144/136 7/22/22
f 19/23/23 7/30/30 23/24/24
f 10/12/12 22/31/31 21/145/137
f 21/29/29 22/27/27 23/24/24
f 24/26/26 23/24/24 27/149/142
f 24/26/26 27/149/142 28/65/63
f 22/27/27 71/150/143 26/34/34
f 25/28/28 22/27/27 26/34/34
f 27/149/142 23/24/24 72/33/33
f 74/89/86 27/149/142 72/33/33
f 28/65/63 27/149/142 74/89/86
f 1/151/17 44/152/19 31/38/37
f 29/153/144 1/154/17 31/155/37
f 31/38/37 44/152/19 46/61/58
f 30/37/36 29/156/144 31/38/37
f 31/38/37 46/61/58 32/39/38
f 5/1/1 2/3/3 33/40/39
f 29/35/40 30/43/145 34/42/42
f 34/42/42 33/40/39 29/35/40
f 5/1/1 33/40/39 36/55/55
f 38/46/46 35/41/41 48/45/45
f 37/48/48 34/42/42 35/44/44
f 39/52/52 37/47/47 38/46/46
f 36/55/55 33/40/39 40/50/50
f 39/49/49 40/50/50 34/42/42
f 42/111/105 40/50/50 39/49/49
f 42/111/105 43/56/56 40/50/50
f 45/58/57 44/57/19 18/60/138
f 46/59/58 45/58/57 47/63/61
f 48/157/146 46/59/58 47/63/61
f 24/26/26 49/62/60 45/58/57
f 50/158/147 47/63/61 49/62/60
f 48/157/146 47/63/61 50/158/148
f 48/157/146 50/158/148 38/69/149
f 50/158/147 49/62/60 38/69/67
f 49/62/60 99/67/65 38/69/67
f 41/53/53 39/52/52 38/46/46
f 49/62/60 98/66/64 99/67/65
f 41/68/66 99/67/65 51/159/150
f 41/68/66 51/159/150 52/160/151
f 88/70/68 42/51/51 41/53/53
f 54/161/72 14/162/11 53/163/13
f 55/73/71 15/16/16 11/9/9
f 16/54/54 55/73/71 13/8/8
f 57/113/107 56/72/70 16/54/54
f 59/76/73 53/75/13 58/164/152
f 62/81/78 59/96/93 58/82/79
f 15/16/16 55/73/71 61/79/76
f 63/80/77 15/16/16 60/78/75
f 80/97/94 62/81/78 63/83/80
f 67/165/153 60/78/75 61/79/76
f 64/84/81 61/79/76 55/73/71
f 67/165/153 61/79/76 64/84/81
f 64/84/81 56/72/70 57/113/107
f 66/85/82 80/97/94 63/83/80
f 66/85/82 63/83/80 60/166/154
f 68/167/155 60/78/75 67/165/153
f 67/165/153 64/84/81 65/118/112
f 65/118/112 69/168/156 67/165/153
f 68/86/83 66/85/82 60/166/154
f 69/168/156 68/167/155 67/165/153
f 14/162/11 54/161/72 71/169/157
f 26/34/34 71/150/143 54/92/89
f 72/33/33 26/34/34 73/101/98
f 74/89/86 72/33/33 73/101/98
f 73/101/98 26/34/34 76/98/95
f 76/98/95 26/34/34 79/93/90
f 77/90/87 74/89/86 73/101/98
f 76/98/95 84/170/158 82/100/97
f 76/98/95 81/99/96 84/170/158
f 106/171/159 103/172/160 101/173/161 102/174/162
f 82/100/97 84/170/158 86/135/127
f 83/134/126 82/100/97 86/135/127
f 84/103/100 66/85/82 70/87/84
f 86/135/127 84/170/158 85/175/163
f 86/108/102 85/107/101 69/106/85
f 87/114/108 16/54/54 36/55/55
f 87/114/108 57/113/107 16/54/54
f 87/114/108 36/55/55 43/56/56
f 88/110/104 89/117/111 43/56/56
f 89/131/123 88/129/68 51/128/122
f 90/112/106 87/114/108 43/56/56
f 65/118/112 57/113/107 90/112/106
f 108/139/131 91/121/115 104/120/114
f 97/126/120 65/118/112 94/176/164
f 95/177/165 65/118/112 91/115/109
f 95/177/165 94/176/164 65/118/112
f 93/125/119 69/168/156 65/118/112
f 94/123/117 107/140/132 97/141/133
f 101/173/161 98/66/64 100/127/121
f 98/66/64 101/173/161 99/67/65
f 51/159/150 99/67/65 103/172/160
f 100/127/121 75/64/62 77/90/87
f 102/174/162 100/127/121 105/133/125
f 101/173/161 100/127/121 102/174/162
f 99/67/65 101/173/161 103/172/160
f 103/172/160 106/171/159 104/178/166
f 102/174/162 105/133/125 106/171/159
f 106/171/159 105/133/125 108/138/130
f 106/171/159 108/138/130 104/178/166
f 96/137/129 83/134/126 107/136/128
f 96/122/116 107/140/132 94/123/117
f 107/140/132 86/108/102 93/109/103
