# Blender v2.82 (sub 7) OBJ File: 'Filament_Particles.blend'
# www.blender.org
mtllib FilamentD.mtl
o FilamentD_Icosphere.001
v 0.069987 -0.189498 0.283440
v -0.006311 -0.171191 -0.206031
v -0.086728 -0.083879 0.477272
v 0.069183 -0.021859 0.606561
v -0.166840 0.028435 -0.190210
v 0.028498 0.106750 0.270939
v 0.026897 0.186570 0.070121
v -0.103323 -0.098579 -0.517974
v 0.012941 -0.253498 -0.036310
v 0.163286 -0.292021 -0.109493
v 0.113483 -0.023379 0.184994
v 0.205417 0.100188 0.028329
v 0.085112 -0.175055 -0.433421
v 0.180681 -0.080719 -0.088536
v 0.061542 -0.008571 -0.841394
v 0.169681 0.001080 -0.609142
v 0.027922 0.115836 -0.418372
vt 0.455839 0.899521
vt 0.347232 0.996935
vt 0.286773 0.758371
vt 0.418246 0.430582
vt 0.238020 0.617100
vt 0.177778 0.447589
vt 0.097799 0.918060
vt 0.000000 0.454882
vt 0.270381 0.283880
vt 0.455839 0.214400
vt 0.598124 0.724349
vt 0.645615 0.500529
vt 0.645615 0.843588
vt 0.598124 0.500529
vt 0.576437 0.716483
vt 0.455839 0.752322
vt 0.455839 0.171225
vt 0.700740 0.000000
vt 0.691370 0.230490
vt 0.713584 0.213193
vt 0.757602 0.000000
vt 0.825742 0.213105
vt 0.700740 0.346555
vt 1.000000 0.552403
vt 1.000000 0.824281
vt 0.892241 0.641456
vt 0.852100 0.081655
vt 0.852100 0.363262
vt 0.085489 0.232066
vt 0.238020 0.288011
vt 0.598124 0.841478
vt 0.509385 0.500529
vt 0.564134 0.234640
vt 0.645483 0.470289
vt 0.319241 0.000000
vt 0.238020 0.783999
vt 0.179283 1.000000
vt 0.700740 0.338451
vt 0.159784 0.000000
vt 0.773750 0.552403
vt 0.892241 0.552403
vt 0.892241 0.737755
vt 0.804105 0.604042
vt 0.700740 0.758852
vt 0.954949 0.305511
vt 0.852100 0.155364
vt 0.954950 0.000000
vn -0.7872 -0.2454 0.5658
vn 0.2763 0.1317 0.9520
vn 0.1521 0.9304 0.3333
vn -0.9797 0.1898 -0.0641
vn -0.0776 0.9666 0.2443
vn -0.3901 -0.9102 -0.1391
vn 0.1362 0.9503 -0.2797
vn -0.8604 -0.3476 -0.3727
vn -0.7633 -0.6422 0.0704
vn 0.3514 -0.8885 0.2949
vn 0.5442 -0.7550 -0.3657
vn 0.8607 0.4766 0.1791
vn 0.8700 0.2622 0.4175
vn 0.5343 -0.8341 -0.1371
vn 0.9455 -0.0786 -0.3159
vn 0.0162 0.0714 -0.9973
vn 0.9722 0.1956 -0.1289
g FilamentD_Icosphere.001_None
usemtl None
s 1
f 3/1/1 4/2/2 6/3/3
f 5/4/4 3/1/1 7/5/5
f 2/6/6 3/7/1 5/8/4
f 5/4/4 7/5/5 17/9/7
f 8/10/8 5/4/4 17/9/7
f 9/11/9 1/12/10 2/13/6
f 1/14/10 9/15/9 10/16/11
f 12/17/12 1/18/10 10/19/11
f 6/20/3 4/21/2 11/22/13
f 6/20/3 11/22/13 7/23/5
f 11/24/13 4/25/2 1/26/10
f 1/27/10 12/28/12 11/22/13
f 2/6/6 8/29/8 13/30/14
f 10/16/11 9/15/9 2/31/6
f 17/32/7 14/33/15 13/34/14
f 8/10/8 17/9/7 15/35/16
f 1/36/10 3/7/1 2/6/6
f 7/5/5 3/1/1 6/3/3
f 2/6/6 5/8/4 8/29/8
f 14/33/15 12/17/12 10/19/11
f 3/7/1 1/36/10 4/37/2
f 7/23/5 11/22/13 12/28/12
f 14/33/15 2/38/6 13/34/14
f 14/33/15 10/19/11 2/38/6
f 15/39/16 13/30/14 8/29/8
f 7/23/5 12/28/12 17/40/7
f 17/32/7 12/17/12 14/33/15
f 15/41/16 17/42/7 16/43/17
f 17/42/7 13/44/14 16/43/17
f 15/45/16 16/46/17 13/47/14
